<!DOCTYPE svg PUBLIC "-//W3C//DTD SVG 1.1//EN" "http://www.w3.org/Graphics/SVG/1.1/DTD/svg11.dtd">
<!-- Uploaded to: SVG Repo, www.svgrepo.com, Transformed by: SVG Repo Mixer Tools -->
<svg version="1.1" id="Layer_1" xmlns="http://www.w3.org/2000/svg" xmlns:xlink="http://www.w3.org/1999/xlink" viewBox="0 0 512 512" xml:space="preserve" width="800px" height="800px" fill="#000000">
<g id="SVGRepo_bgCarrier" stroke-width="0"/>
<g id="SVGRepo_tracerCarrier" stroke-linecap="round" stroke-linejoin="round"/>
<g id="SVGRepo_iconCarrier"> <path style="fill:#E6E6E6;" d="M164.842,131.503c-10.628-8.014-17.495-20.748-17.495-35.079c0-22.432,16.842-40.916,38.563-43.529 c-0.378-1.902-0.596-3.877-0.596-5.881c0-16.407,13.299-29.692,29.692-29.692c5.837,0,11.238,1.698,15.826,4.602 C238.426,8.814,252.582,0,268.814,0c8.624,0,16.654,2.483,23.434,6.781C299.029,2.483,307.059,0,315.668,0 c16.232,0,30.388,8.814,37.983,21.924c4.588-2.904,10.004-4.602,15.826-4.602c16.393,0,29.692,13.285,29.692,29.692 c0,2.004-0.204,3.978-0.596,5.881c21.736,2.614,38.578,21.097,38.578,43.529c0,14.33-6.867,27.064-17.511,35.079"/> <path style="fill:#CCCCCC;" d="M218.979,96.423c0-22.433,16.842-40.916,38.563-43.529c-0.378-1.902-0.596-3.877-0.596-5.881 c0-16.407,13.299-29.692,29.692-29.692c5.837,0,11.238,1.698,15.826,4.602c5.579-9.632,14.708-16.93,25.593-20.131 C324.128,0.636,319.975,0,315.668,0c-8.61,0-16.638,2.483-23.419,6.781C285.468,2.483,277.44,0,268.814,0 c-16.233,0-30.389,8.814-37.983,21.924c-4.588-2.904-9.989-4.602-15.826-4.602c-16.393,0-29.692,13.285-29.692,29.692 c0,2.004,0.218,3.978,0.596,5.881c-21.721,2.614-38.563,21.097-38.563,43.529c0,14.33,6.867,27.064,17.495,35.078h71.634 C225.846,123.487,218.979,110.753,218.979,96.423z"/> <path style="fill:#d6d6d6;" d="M129.261,152.181c-30.004,0-54.413,24.409-54.413,54.413v78.73c0,30.432,17.948,58.126,45.725,70.557 l44.924,20.103c-1.831,17.003-16.266,30.287-33.747,30.287c-4.965,0-8.989,4.024-8.989,8.989s4.023,8.989,8.989,8.989 c28.632,0,51.924-23.294,51.924-51.924v-2.075V206.594C183.675,176.59,159.265,152.181,129.261,152.181z M123.039,290.425V170.701 c2.023-0.35,4.1-0.543,6.222-0.543c20.091,0,36.436,16.345,36.436,36.436v149.785c0,0-0.004-0.002-0.012-0.006 C139.737,344.695,123.039,318.88,123.039,290.425z"/> <path style="fill:#d6d6d6;" d="M419.649,128.716v336.316c-25.943,0-46.968,21.025-46.968,46.968H211.813 c0-25.943-21.038-46.968-46.968-46.968V128.716H419.649z"/> <path style="fill:#8c8c8c;" d="M224.3,128.716V512h-12.488c0-25.943-21.038-46.968-46.968-46.968V128.716H224.3z"/> <rect x="164.838" y="128.716" style="fill:#d6d6d6;" width="254.808" height="44.025"/> <rect x="164.838" y="128.716" style="fill:#d6d6d6;" width="59.46" height="44.025"/> <g> <path style="fill:#8c8c8c;" d="M292.244,415.791c-23.771,0-43.11-19.339-43.11-43.109V202.079c0-4.964,4.023-8.989,8.989-8.989 c4.965,0,8.989,4.024,8.989,8.989v170.603c0,13.858,11.274,25.132,25.133,25.132c13.858,0,25.132-11.274,25.132-25.132V202.079 c0-4.964,4.023-8.989,8.989-8.989c4.965,0,8.989,4.024,8.989,8.989v170.603C335.353,396.453,316.015,415.791,292.244,415.791z"/> <path style="fill:#8c8c8c;" d="M394.303,415.786c-11.531,0-22.359-4.487-30.489-12.634c-8.136-8.136-12.621-18.962-12.621-30.476 V202.077c0-4.964,4.023-8.989,8.989-8.989c4.965,0,8.989,4.024,8.989,8.989v170.598c0,6.713,2.615,13.024,7.363,17.771 c4.74,4.751,11.05,7.363,17.771,7.363c4.965,0,8.989,4.024,8.989,8.989S399.268,415.786,394.303,415.786z"/> <path style="fill:#8c8c8c;" d="M190.191,415.786c-4.965,0-8.989-4.024-8.989-8.989c0-4.964,4.023-8.989,8.989-8.989 c13.852,0,25.121-11.275,25.121-25.134V202.077c0-4.964,4.023-8.989,8.989-8.989s8.989,4.024,8.989,8.989v170.598 C233.289,396.447,213.956,415.786,190.191,415.786z"/> <path style="fill:#8c8c8c;" d="M419.648,444.389h-254.81c-4.965,0-8.989-4.024-8.989-8.989s4.023-8.989,8.989-8.989h254.81 c4.965,0,8.989,4.024,8.989,8.989S424.613,444.389,419.648,444.389z"/> </g> </g>
</svg>