<svg width="1136" height="897" viewBox="0 0 1136 897" fill="none" xmlns="http://www.w3.org/2000/svg">
<path d="M0 475.774C16.4288 467.339 32.4171 459.125 49.9474 450.123C33.4242 441.059 17.0268 434.796 0.818295 426.267C2.42341 424.882 3.49349 423.529 4.8783 422.836C18.569 415.944 32.4171 409.272 46.0448 402.253C49.6642 400.396 52.6226 400.617 56.1791 402.285C86.4245 416.416 116.733 430.39 147.073 444.332C150.975 446.126 153.147 448.109 153.147 452.956C152.958 542.654 152.99 632.351 152.958 722.08C152.958 722.678 152.738 723.245 152.486 724.472C151.385 725.165 149.968 726.235 148.426 727.022C119.219 741.877 90.1068 756.858 60.7112 771.367C54.5425 774.42 51.9617 777.787 52.1191 785.026C52.6541 811.212 52.3394 837.397 52.3394 863.582C52.3394 866.478 52.3394 869.405 52.3394 873.874C34.0536 865.723 17.1212 858.201 0 850.584C0 725.605 0 601.067 0 475.774ZM99.1081 748.423C99.1081 655.61 99.1081 564.244 99.1081 472.501C83.7493 465.388 68.6109 458.369 52.6541 450.973C52.6541 543.755 52.6541 634.932 52.6541 726.707C67.824 733.82 82.9625 740.87 99.1081 748.423Z" fill="white"/>
<path d="M1134.78 373.49C867.58 508.729 602.107 643.087 335.374 778.074C334.052 769.607 334.839 761.645 334.713 753.777C334.587 745.971 334.681 738.135 334.681 729.7C338.049 727.843 341.354 725.829 344.816 724.098C497.27 646.832 649.725 569.566 802.18 492.363C893.451 446.161 984.817 400.116 1076.03 353.756C1082.29 350.578 1087.29 350.294 1093.49 353.505C1104.41 359.201 1115.78 364.08 1126.95 369.335C1129.06 370.343 1131.07 371.507 1134.78 373.49Z" fill="white"/>
<path d="M1035.58 326.468C1017.17 318.254 1000.24 310.669 983.117 303.052C983.117 210.239 983.117 117.866 983.117 25.1783C1000.21 16.9324 1017.14 8.74946 1035.3 0C1035.3 43.5899 1035.3 85.6062 1035.3 128.787C1038.42 127.685 1040.62 127.119 1042.6 126.143C1054.78 120.195 1066.9 114.152 1079.02 108.141C1081.97 106.662 1084.65 105.403 1088.3 107.071C1103.88 114.184 1119.65 120.919 1135.67 127.906C1135.67 193.055 1135.67 257.92 1135.67 324.296C1117.63 316.271 1100.48 308.591 1082.95 300.786C1082.95 251.531 1082.95 202.811 1082.95 153.556C1067.43 146.412 1052.29 139.425 1035.58 131.745C1035.58 197.24 1035.58 261.099 1035.58 326.468Z" fill="white"/>
<path d="M551.09 325.083C558.675 321.338 566.26 317.719 573.719 313.91C598.142 301.542 622.596 289.236 646.893 276.646C651.331 274.349 654.888 274.129 659.451 276.395C674.275 283.728 689.319 290.589 704.331 297.67C704.331 362.788 704.331 427.465 704.331 493.117C701.751 492.299 699.548 491.795 697.533 490.914C684.85 485.375 672.135 479.93 659.609 474.013C654.573 471.621 650.481 471.338 645.32 474.076C633.14 480.591 620.488 486.287 608.15 492.55C604.311 494.502 601.006 494.565 597.072 492.771C583.129 486.382 568.998 480.37 554.961 474.17C553.608 473.572 552.412 472.691 551.059 471.873C551.09 422.995 551.09 374.244 551.09 325.083ZM651.111 323.824C639.844 316.586 610.165 303.084 604.185 302.391C604.185 350.45 604.185 398.509 604.185 446.726C619.701 453.902 634.871 460.889 651.111 468.411C651.111 419.124 651.111 371.443 651.111 323.824Z" fill="white"/>
<path d="M602.8 147.954C597.323 146.821 591.815 145.719 585.08 144.334C584.86 148.678 584.577 151.825 584.545 155.004C584.514 176.972 584.419 198.908 584.608 220.876C584.64 225.566 583.57 228.524 578.975 230.822C550.145 245.079 521.505 259.682 492.802 274.16C492.015 274.569 491.134 274.758 489.12 275.45C488.962 271.925 488.679 268.778 488.679 265.662C488.647 229.28 488.71 192.866 488.616 156.483C488.616 152.989 487.798 149.464 487.357 145.971L487.137 146.191C491.826 145.373 496.484 144.177 501.205 143.862C509.514 143.264 517.886 143.233 526.698 142.918C526.698 122.461 526.698 103.042 526.698 83.0882C523.299 82.2069 519.869 81.3572 516.469 80.4444C506.367 77.7063 500.292 71.2229 499.411 60.7424C498.908 54.794 499.159 48.7198 499.631 42.7399C500.67 29.4899 499.789 16.8692 490.19 6.29435C497.523 4.40598 497.617 4.28009 502.244 8.11979C509.231 13.8793 517.036 16.9007 526.509 16.6804C526.981 12.7463 527.359 9.2528 527.831 5.28722C533.622 5.28722 539.224 5.28722 545.236 5.28722C545.676 9.03249 546.085 12.4945 546.558 16.4601C555.653 17.0266 563.301 14.2255 569.596 8.24568C573.309 4.72072 577.086 4.1542 582.594 5.50753C571.295 17.5616 570.855 31.8503 571.484 46.4852C571.704 51.2691 571.484 56.1159 571.138 60.8998C570.382 71.4747 564.623 78.021 554.426 80.7277C551.845 81.4201 549.264 82.1755 546.337 82.9938C546.337 102.601 546.337 122.083 546.337 142.729C558.737 143.264 570.918 143.768 583.821 144.303C586.874 133.224 589.77 122.587 592.823 111.508C590.399 110.312 588.322 109.305 585.143 107.731C587.252 86.8649 589.392 65.4948 591.627 43.0862C611.203 43.0232 628.607 48.0274 646.327 57.5007C637.325 77.4545 628.607 96.7474 619.763 116.355C616.994 116.481 614.413 116.607 611.518 116.764C608.496 127.339 605.569 137.694 602.611 148.048L602.8 147.954ZM614.13 88.47C613.658 88.2497 613.186 88.0609 612.682 87.8406C614.728 78.8079 616.836 69.7751 618.693 60.711C619.04 59.0744 618.442 57.2489 618.253 55.5179C617.56 55.4235 616.868 55.3291 616.175 55.2347C610.951 64.6136 610.259 75.9124 604.499 85.2283C604.09 79.5317 604.94 73.9925 604.751 68.4848C604.562 62.9141 607.017 56.8083 602.768 51.2691C599.621 56.5565 595.687 90.2954 596.757 101.5C602.17 102.885 607.835 104.332 613.878 105.906C620.676 90.5787 627.097 76.0697 633.486 61.4978C633.643 61.1516 633.013 60.4906 632.384 59.2947C626.152 61.844 625.68 68.4848 622.69 73.0798C619.512 77.9896 616.962 83.3085 614.13 88.47ZM527.107 43.6527C520.592 43.6527 515.368 43.6527 509.766 43.6527C509.766 46.9258 509.766 49.664 509.766 52.6539C515.62 52.6539 520.844 52.6539 526.667 52.6539C526.824 49.664 526.95 47.1462 527.107 43.6527ZM546.463 52.4965C552.569 52.4965 557.73 52.4965 563.458 52.4965C563.27 49.2863 563.144 46.7685 562.986 43.7156C557.29 43.7156 552.128 43.7156 546.495 43.7156C546.463 46.7999 546.463 49.3178 546.463 52.4965ZM563.616 23.4156C557.542 24.5801 552.16 25.5872 546.495 26.6573C546.495 28.9548 546.495 30.8747 546.495 33.1092C552.16 33.1092 557.321 33.1092 563.018 33.1092C563.238 29.7102 563.395 26.8776 563.616 23.4156ZM526.761 26.5629C520.624 25.5243 515.211 24.5801 509.073 23.51C509.231 27.0979 509.357 29.899 509.514 33.0778C515.557 33.0778 521.002 33.0778 526.761 33.0778C526.761 30.8117 526.761 29.1437 526.761 26.5629ZM510.678 62.9455C513.542 70.6249 517.067 72.5762 527.107 72.0412C526.981 68.9883 526.824 65.9355 526.698 62.9455C520.687 62.9455 515.777 62.9455 510.678 62.9455ZM546.4 72.8595C558.58 71.1914 560.28 69.9955 561.318 63.0714C556.409 63.0714 551.499 63.0714 546.4 63.0714C546.4 66.5649 546.4 69.4289 546.4 72.8595Z" fill="white"/>
<path d="M862.672 364.52C862.672 281.4 862.672 199.539 862.672 117.112C879.95 109.432 897.103 101.816 915.515 93.6328C915.515 110.911 915.515 126.459 915.515 142.605C932.133 150.253 948.372 157.743 966.029 165.863C948.467 174.99 932.51 183.299 916.207 191.765C916.207 240.517 916.207 289.237 916.207 338.932C931.44 346.266 947.082 353.819 963.574 361.782C961.686 363.292 960.521 364.551 959.105 365.275C945.383 372.136 931.66 378.997 917.781 385.607C915.578 386.645 912.305 387.401 910.322 386.519C894.365 379.438 878.629 371.947 862.672 364.52Z" fill="white"/>
<path d="M834.094 184.525C834.094 200.293 834.094 215.652 834.094 231.514C831.891 232.741 829.657 234.158 827.265 235.322C816.438 240.578 805.706 246.086 794.659 250.807C788.27 253.545 785.721 257.007 785.941 264.309C786.508 285.993 786.161 307.678 786.161 329.363C786.161 365.809 786.161 402.254 786.161 438.7C786.161 441.942 786.161 445.183 786.161 449.306C783.329 448.362 781.346 447.89 779.552 447.04C767.655 441.249 755.853 435.206 743.862 429.604C739.581 427.59 737.473 425.261 737.504 420.131C737.693 358.696 737.662 297.229 737.536 235.794C737.536 230.098 739.518 225.66 744.114 222.733C750.188 218.862 756.325 214.896 762.934 212.127C785.689 202.59 808.633 193.558 831.545 184.368C831.986 184.21 832.615 184.431 834.094 184.525Z" fill="white"/>
<path d="M469.449 563.648C469.449 559.588 469.449 556.284 469.449 553.011C469.449 510.302 469.323 467.593 469.575 424.884C469.607 418.621 467.907 415.222 461.959 412.579C447.985 406.378 434.389 399.297 419.785 392.184C422.083 390.548 423.562 389.194 425.293 388.282C437.725 381.578 450.314 375.157 462.651 368.265C466.774 365.967 470.11 365.81 474.296 368.107C486.665 374.906 499.191 381.452 511.843 387.715C516.218 389.887 517.76 392.656 517.76 397.535C517.603 458.277 517.666 519.051 517.634 579.794C517.634 581.777 517.194 583.759 516.847 586.812C500.733 578.976 485.438 571.485 469.449 563.648Z" fill="white"/>
<path d="M234.223 633.016C251.25 641.041 267.017 648.469 283.604 656.274C281.841 657.753 280.771 659.044 279.418 659.736C266.01 666.534 252.477 673.144 239.133 680.068C235.261 682.082 232.02 681.987 228.148 680.162C214.521 673.804 200.83 667.541 187.013 661.593C182.765 659.768 181.254 657.281 181.254 652.718C181.38 607.837 181.348 562.957 181.285 518.108C181.285 514.206 181.915 511.342 186.006 509.453C201.019 502.498 215.874 495.164 230.792 488.02C231.548 487.674 232.492 487.705 234.223 487.391C234.223 535.985 234.223 584.264 234.223 633.016Z" fill="white"/>
<path d="M287.223 509.923C270.07 502.055 253.705 494.565 236.961 486.917C237.716 485.878 238.031 485.028 238.629 484.714C252.76 477.38 266.892 469.984 281.149 462.934C283.289 461.864 286.657 461.455 288.702 462.399C304.281 469.449 319.64 476.94 335.156 484.304C335.156 533.497 335.156 582.185 335.156 631.503C319.735 639.718 304.187 647.995 287.192 657.028C287.223 606.954 287.223 558.455 287.223 509.923Z" fill="white"/>
<path d="M416.323 589.046C399.958 581.021 384.63 573.53 368.988 565.851C368.988 500.765 368.988 435.805 368.988 370.152C370.971 370.75 372.954 371.034 374.653 371.883C386.833 377.8 398.919 383.906 411.162 389.697C415.128 391.585 417.016 393.851 417.016 398.541C416.859 460.574 416.89 522.607 416.859 584.64C416.859 585.584 416.638 586.465 416.323 589.046Z" fill="white"/>
<path d="M487.328 145.971C481.757 146.066 476.187 146.129 469.955 146.223C469.955 193.432 469.955 239.383 469.955 285.868C460.356 290.715 451.134 295.405 441 300.535C441 250.147 441 201.238 441 151.636C450.033 149.842 458.782 148.08 468.633 146.129C466.21 136.907 464.101 127.937 461.363 119.156C460.828 117.457 458.027 115.82 455.981 115.317C442.511 112.012 435.052 103.263 431.904 90.107C429.544 80.2245 426.774 70.405 423.91 59.4839C443.738 54.1335 462.999 48.9719 483.048 43.5586C486.51 56.966 490.286 69.3034 492.804 81.8611C494.787 91.6492 490.979 100.399 483.74 107.102C480.278 110.313 479.743 113.303 480.97 117.425C483.016 124.349 484.936 131.305 486.604 138.323C487.202 140.841 486.982 143.548 487.139 146.192C487.108 146.192 487.328 145.971 487.328 145.971ZM476.029 55.6442C462.433 59.2636 449.529 62.7256 436.468 66.2191C436.625 68.1075 436.594 69.3034 436.877 70.405C438.608 77.0772 440.213 83.7809 442.227 90.3902C445.847 102.067 455.95 108.204 467.122 105.718C477.981 103.326 484.716 93.0025 482.481 80.9169C481.002 72.7025 478.421 64.7399 476.029 55.6442Z" fill="white"/>
<path d="M119.724 820.373C125.326 817.383 131.054 814.33 138.135 810.585C131.085 806.997 125.357 804.07 119.566 801.143C119.566 797.178 119.566 793.621 119.566 789.561C125.452 786.666 131.274 783.833 137.915 780.56C138.324 784.809 138.639 787.988 139.017 792.048C144.524 794.597 150.378 797.335 157.051 800.451C157.051 796.045 157.051 792.834 157.051 789.247C151.574 786.414 146.13 783.581 139.017 779.899C145.532 776.626 150.473 773.919 155.571 771.685C156.988 771.055 159.159 771.37 160.67 771.968C165.926 774.108 171.056 776.594 176.375 778.986C176.375 783.204 176.375 787.012 176.375 791.229C170.804 794.219 165.265 797.209 158.435 800.892C164.824 804.133 170.269 806.903 176.186 809.924C176.186 825.944 176.186 842.09 176.186 858.928C170.647 861.603 164.887 864.404 157.523 867.96C157.523 861.508 157.523 856.819 157.523 852.098C157.523 843.065 157.334 834.033 157.586 825C157.712 820.782 156.232 818.265 152.267 816.754C148.112 815.149 144.115 813.103 139.174 810.837C139.174 827.486 139.174 843.191 139.174 859.305C144.336 862.012 149.592 864.75 154.973 867.583C142.762 878.818 137.6 878.881 119.661 868.086C119.724 852.507 119.724 836.645 119.724 820.373Z" fill="white"/>
<path d="M602.609 148.173C604.026 147.827 605.505 147.072 606.858 147.198C619.416 148.582 631.722 151.069 643.43 156.104C649.221 158.591 652.557 162.305 651.959 169.229C651.424 175.492 651.77 181.818 651.864 188.144C651.927 191.071 651.203 193.274 648.371 194.753C634.271 202.086 620.234 209.545 606.134 216.91C605.694 217.13 605.001 216.847 603.522 216.753C603.522 213.952 603.522 211.056 603.522 208.161C603.522 191.039 603.554 173.918 603.491 156.797C603.491 153.838 603.081 150.848 602.83 147.921C602.798 147.953 602.609 148.173 602.609 148.173Z" fill="white"/>
<path d="M430.801 155.793C430.801 205.615 430.801 255.342 430.801 305.478C427.402 307.209 424.002 308.94 419.659 311.143C419.344 307.964 418.904 305.761 418.904 303.558C418.872 258.772 418.841 214.018 418.872 169.232C418.872 159.255 419.943 158.09 430.801 155.793Z" fill="white"/>
<path d="M81.0742 888.477C81.0742 856.595 81.0742 825.909 81.1057 795.223C81.1057 794.09 81.3889 792.926 81.7037 790.723C87.0226 793.178 91.8065 795.475 96.6848 797.584C99.8635 798.937 99.9579 801.549 99.9579 804.319C99.9579 812.439 99.9894 820.559 99.9894 828.679C99.9894 847.626 99.9894 866.572 99.9894 885.55C99.9894 888.761 99.9894 892.002 99.9894 896.755C92.8451 893.607 87.18 891.121 81.0742 888.477Z" fill="white"/>
<path d="M205.169 813.825C198.875 810.835 192.926 808.002 186.758 805.075C186.758 782.981 186.758 761.202 186.758 738.164C193.241 740.997 199.158 743.577 205.547 746.379C205.547 762.776 205.547 778.953 205.547 795.224C211.307 798.214 216.563 800.921 223.14 804.32C216.468 807.845 210.803 810.835 205.169 813.825Z" fill="white"/>
<path d="M271.672 711.951C275.669 710.094 279.887 708.551 283.663 706.285C287.409 704.051 290.808 703.453 294.49 706.034C294.962 706.38 295.56 706.6 296.095 706.852C308.37 713.084 306.292 710.345 306.387 723.658C306.513 742.92 306.418 762.15 306.418 781.411C306.418 793.465 306.041 793.969 292.633 799.445C292.476 796.361 292.193 793.465 292.193 790.601C292.161 770.144 292.004 749.686 292.287 729.229C292.381 723.627 290.776 720.354 285.332 718.465C280.579 716.797 276.173 714.122 271.609 711.888L271.672 711.951Z" fill="white"/>
<path d="M271.611 711.914C271.957 716.352 272.555 720.789 272.65 725.259C272.807 735.487 272.901 745.716 272.618 755.945C272.492 760.477 273.814 763.309 278.22 764.883C281.777 766.173 285.113 768.062 290.117 770.422C283.759 773.758 278.85 776.465 273.783 778.857C272.65 779.392 270.887 779.077 269.565 778.668C254.616 774.105 253.545 772.594 253.545 756.731C253.545 747.101 253.671 737.47 253.483 727.839C253.42 724.031 254.773 721.797 258.203 720.066C262.861 717.705 267.205 714.652 271.674 711.914C271.674 711.946 271.611 711.914 271.611 711.914Z" fill="white"/>
<path d="M226.132 769.23C227.234 769.451 228.461 769.451 229.468 769.923C234.095 772 238.658 774.203 243.82 776.595C243.82 791.671 243.946 806.589 243.662 821.507C243.631 823.395 241.9 825.913 240.2 826.952C235.92 829.564 231.262 831.515 226.667 833.781C224.464 826.857 224.118 778.452 226.132 769.23Z" fill="white"/>
<path d="M289.171 801.52C282.436 804.95 277.809 807.499 272.994 809.64C271.578 810.269 269.406 810.269 267.958 809.671C263.048 807.688 258.328 805.296 252.348 802.495C258.139 799.379 262.734 796.61 267.581 794.501C269.469 793.683 272.207 793.777 274.19 794.533C278.596 796.201 282.782 798.498 289.171 801.52Z" fill="white"/>
</svg>
